<?xml version="1.0" encoding="UTF-8" standalone="no"?>
<!-- Created with Inkscape (http://www.inkscape.org/) -->

<svg
   xmlns:dc="http://purl.org/dc/elements/1.1/"
   xmlns:cc="http://creativecommons.org/ns#"
   xmlns:rdf="http://www.w3.org/1999/02/22-rdf-syntax-ns#"
   xmlns:svg="http://www.w3.org/2000/svg"
   xmlns="http://www.w3.org/2000/svg"
   xmlns:sodipodi="http://sodipodi.sourceforge.net/DTD/sodipodi-0.dtd"
   xmlns:inkscape="http://www.inkscape.org/namespaces/inkscape"
   width="322.16852mm"
   height="166.39211mm"
   viewBox="0 0 322.16852 166.39211"
   version="1.1"
   id="svg8"
   inkscape:version="0.92.5 (2060ec1f9f, 2020-04-08)"
   sodipodi:docname="gaps_decomposed.svg">
  <defs
     id="defs2" />
  <sodipodi:namedview
     id="base"
     pagecolor="#ffffff"
     bordercolor="#666666"
     borderopacity="1.0"
     inkscape:pageopacity="0.0"
     inkscape:pageshadow="2"
     inkscape:zoom="0.5"
     inkscape:cx="554.80135"
     inkscape:cy="316.10358"
     inkscape:document-units="mm"
     inkscape:current-layer="layer1"
     showgrid="false"
     inkscape:window-width="1366"
     inkscape:window-height="654"
     inkscape:window-x="1280"
     inkscape:window-y="283"
     inkscape:window-maximized="1" />
  <metadata
     id="metadata5">
    <rdf:RDF>
      <cc:Work
         rdf:about="">
        <dc:format>image/svg+xml</dc:format>
        <dc:type
           rdf:resource="http://purl.org/dc/dcmitype/StillImage" />
        <dc:title></dc:title>
      </cc:Work>
    </rdf:RDF>
  </metadata>
  <g
     inkscape:label="Layer 1"
     inkscape:groupmode="layer"
     id="layer1"
     transform="translate(30.010686,87.024757)">
    <path
       inkscape:connector-curvature="0"
       id="path830"
       d="m 274.59002,73.51443 c -0.49696,-0.69793 -1.53834,-1.33654 -3.23948,-1.98658 -2.36741,-0.90464 -4.46594,-2.34398 -5.55874,-3.81263 -0.26772,-0.35979 -1.21161,-1.11385 -2.09754,-1.67569 -2.15314,-1.36548 -4.46637,-1.38856 -7.33905,-0.0732 -2.96001,1.35533 -5.16465,1.45563 -8.1302,0.3699 -1.32416,-0.48479 -3.34102,-1.17127 -4.48191,-1.5255 -2.48341,-0.77106 -5.1576,-2.39353 -5.1576,-3.12917 0,-0.29137 0.64135,-0.85696 1.42522,-1.25686 1.9397,-0.98956 2.45966,-2.16846 1.51466,-3.43418 -0.80532,-1.07864 -1.7165,-1.41181 -3.99934,-1.46234 -2.34719,-0.052 -6.05581,-1.22166 -9.00467,-2.84009 -2.09853,-1.15174 -2.96459,-1.43073 -4.47134,-1.44038 -1.10219,-0.007 -2.44751,-0.29156 -3.27981,-0.69359 -1.99561,-0.96395 -4.40232,-0.89996 -6.52042,0.17337 -0.99495,0.50418 -3.88536,2.91507 -6.77924,5.65456 -2.77463,2.62661 -5.70502,5.09576 -6.51197,5.487 -1.33171,0.64568 -1.68485,0.67345 -3.82477,0.3008 -2.92509,-0.50938 -4.05665,-0.13254 -4.05665,1.35099 0,0.54307 0.23983,1.3298 0.53295,1.74829 0.29312,0.41849 0.41218,0.83507 0.26458,0.92573 -0.1476,0.0907 -1.61774,0.0232 -3.26698,-0.14984 -3.74649,-0.39316 -5.7645,-0.11895 -7.04327,0.95707 -1.21279,1.02049 -1.48169,1.03791 -2.04708,0.13259 -0.60837,-0.97416 -2.15168,-0.89927 -3.60788,0.17508 -1.09471,0.80765 -1.25389,0.83622 -1.92062,0.34464 -2.94579,-2.17194 -3.83362,-2.30278 -5.85567,-0.86295 l -1.01236,0.72087 -0.59784,-0.91241 c -0.3288,-0.50183 -1.04262,-1.14242 -1.58625,-1.42354 -2.06507,-1.06789 -3.70251,-0.39685 -4.93718,2.02329 l -0.72926,1.42948 -1.74304,-0.23122 c -1.38578,-0.18383 -2.08493,-0.0737 -3.41115,0.53719 -1.15855,0.53367 -2.7133,0.83927 -5.08963,1.0004 -3.15526,0.21394 -3.56703,0.33013 -5.29166,1.4931 -2.45312,1.65422 -3.0436,1.76106 -6.42575,1.16268 -3.61563,-0.6397 -5.53749,-0.63983 -7.93965,-3.6e-4 -1.05154,0.27986 -2.02288,0.44024 -2.15852,0.35641 -0.13564,-0.0838 -0.34675,-0.77865 -0.46915,-1.54405 -0.38306,-2.39573 -2.90745,-4.62139 -5.24148,-4.62139 -0.44434,0 -1.55342,0.39687 -2.46462,0.88194 -2.09412,1.11479 -2.74738,1.1261 -2.74738,0.0476 0,-0.45891 -0.3175,-1.23801 -0.70555,-1.73134 -0.88091,-1.11989 -0.88091,-1.39959 0,-2.19679 1.58644,-1.43571 0.58527,-3.32863 -2.46945,-4.66903 -1.48304,-0.65076 -3.11749,-2.03253 -2.79066,-2.35924 -5.76307,-2.246628 -5.28655,-2.50158 -6.2877,-3.97303 -0.44308,-0.651234 -1.13439,-2.38323 -1.79765,-3.28037 -1.09367,-1.47926 -2.06451,-1.80824 -3.54276,-1.20048 -2.69806,1.10927 -3.4542,0.34225 -1.64107,-1.66466 1.74997,-1.93701 1.65824,-3.37817 -0.27512,-4.32257 -1.12384,-0.54897 -2.14065,-0.6504 -6.25688,-0.62415 -6.17919,0.0394 -7.06039,0.34434 -7.92649,2.74302 -1.24504,3.4482 -2.5963,6.07164 -3.3294,6.46399 -0.61481,0.32904 -1.10993,0.23816 -2.72094,-0.49938 -1.08315,-0.49588 -2.19972,-0.9016 -2.48127,-0.9016 -0.28155,0 -1.20831,-0.40812 -2.05946,-0.90692 -1.45588,-0.8532 -1.85659,-0.91066 -6.76559,-0.97014 -4.94962,-0.06 -5.31273,-0.11313 -7.05841,-1.03336 -2.13665,-1.12633 -2.51386,-1.15812 -4.99586,-0.42105 -1.63747,0.48628 -1.92339,0.71834 -2.49925,2.02848 -0.35764,0.81366 -1.12078,2.03055 -1.69588,2.7042 l -1.04562,1.22482 -1.98999,-1.81874 c -1.78021,-1.62701 -2.2779,-1.87974 -4.72124,-2.39741 -3.23822,-0.6861 -4.50518,-1.13577 -5.05014,-1.79239 -0.62858,-0.7574 0.88913,-3.00208 4.92287,-7.28089 2.01157,-2.13378 3.64881,-4.19021 3.78286,-4.75138 0.12998,-0.54416 0.7713,-1.86745 1.42514,-2.94064 1.54519,-2.53619 1.88941,-3.82174 1.88941,-7.05633 0,-3.9449 -0.58217,-5.86729 -4.56112,-15.06123 C 45.03424,7.62068 44.1429,4.68825 43.66029,2.5063 c -0.4826,-2.18194 -1.42298,-5.42341 -2.08973,-7.20325 -1.7384,-4.64061 -2.54078,-8.15986 -3.00675,-13.18779 -0.53064,-5.72575 -1.28423,-10.01092 -2.07485,-11.79821 -0.89518,-2.02368 -2.76774,-3.51708 -5.56838,-4.44088 -1.32783,-0.43799 -3.28074,-1.17614 -4.33982,-1.64033 -1.05906,-0.46419 -2.835,-0.93904 -3.94652,-1.05522 -2.47791,-0.25899 -4.53234,-1.71996 -4.53903,-3.22785 -0.0116,-2.60889 -2.18189,-7.74332 -3.69109,-8.73219 -0.6269,-0.41075 -1.25597,-0.50287 -2.26732,-0.332 l -1.3997,0.23647 -0.76376,-2.58475 c -0.42007,-1.42162 -1.02536,-2.87883 -1.3451,-3.23824 -1.44107,-1.6199 -4.17557,-2.19636 -8.0303,-1.69286 -4.533947,0.59221 -8.179693,-0.62113 -11.607624,-3.86313 -1.963377,-1.85688 -2.836372,-2.08572 -4.988249,-1.30759 -0.639487,0.23124 -1.285759,0.29759 -1.436158,0.14745 -0.150397,-0.15015 -0.365919,-1.88716 -0.478935,-3.86003 -0.268422,-4.6856 -0.995316,-6.22473 -3.382673,-7.16247 -3.05139,-1.19857 -8.05178,-3.94029 -8.161134,-4.47476 -0.19586,-0.95727 3.899928,-8.98642 4.791275,-9.39255 1.305447,-0.5948 4.998853,-0.42388 7.487185,0.34649 1.26118,0.39045 3.627045,1.35431 5.257478,2.14191 4.212047,2.03468 5.924225,2.24903 9.030025,1.13045 3.9472,-1.42162 4.22026,-1.42242 5.77595,-0.0169 0.75036,0.67791 2.52206,1.90873 3.9371,2.73516 1.41503,0.82642 3.45972,2.3767 4.54376,3.44507 3.51524,3.46443 4.15809,3.75439 8.64246,3.89819 l 3.91183,0.12544 1.5875,1.32059 c 2.31326,1.92432 3.0763,2.24944 4.74313,2.02097 0.80431,-0.11024 1.71258,-0.29645 2.01837,-0.41379 0.39582,-0.15189 0.8271,0.24925 1.49708,1.39249 0.9607,1.63932 2.4044,2.66811 3.74416,2.66811 0.43346,0 1.29522,0.6144 2.04599,1.45872 1.682,1.89156 3.00776,2.42184 6.0549,2.42184 1.74489,0 3.24093,0.26326 5.01172,0.88194 2.84018,0.9923 3.6638,1.06049 5.64376,0.46728 1.28434,-0.38479 1.54817,-0.33046 3.66341,0.75444 3.29742,1.69125 5.44057,1.67372 7.97313,-0.0652 2.68354,-1.84258 3.44672,-2.04883 7.83305,-2.11693 4.27061,-0.0663 5.78814,0.3956 7.56879,2.30379 l 0.82388,0.88289 -1.88221,1.39523 c -2.51709,1.86584 -4.88735,4.45681 -6.74995,7.37846 -2.04481,3.20746 -2.83713,5.22095 -3.77721,9.59875 -2.42869,11.31001 1.60807,23.17793 10.06726,29.59731 3.2203,2.44377 5.90778,3.70444 10.21935,4.79376 7.38654,1.86623 14.34611,2.05267 21.0319,0.56344 2.68465,-0.598 3.58483,-0.66637 4.7872,-0.36361 2.01689,0.50786 13.84066,0.47885 15.89723,-0.039 2.23471,-0.56271 4.4096,-2.75151 4.97834,-5.01019 0.38224,-1.51799 0.51092,-1.66772 1.34727,-1.56769 0.76787,0.0918 1.00708,0.39449 1.41062,1.78475 0.64623,2.22635 2.42456,3.96777 4.76014,4.66137 2.5549,0.75872 28.93988,0.80631 31.43068,0.0567 3.2855,-0.98879 4.89823,-3.03581 5.45628,-6.92559 l 0.27776,-1.93606 3.17101,-0.24471 c 2.70767,-0.20895 7.82503,-1.36079 9.73395,-2.19096 0.48287,-0.20999 0.59643,0.15703 0.77535,2.50593 0.29568,3.88183 0.787,5.25137 2.49755,6.96192 2.13112,2.13111 3.21936,2.31642 13.60371,2.31642 4.86179,0 8.83961,0.13838 8.83961,0.30752 4.76421,3.7620608 7.78433,2.4557813 9.3416,5.33692 0.10087,0 0.1834,0.53422 0.1834,1.18715 0,1.65218 1.10258,2.89095 3.65148,4.10252 1.19315,0.56714 3.20123,1.67951 4.46241,2.47194 1.26118,0.79243 2.68993,1.52663 3.175,1.63155 1.55994,0.33742 1.77641,0.45739 1.97403,1.09398 1.01671,3.27499 1.9577,3.97188 5.64608,4.18142 2.16554,0.12302 2.9539,0.32603 3.81642,0.98276 1.6504,1.25663 2.49437,1.39857 4.45117,0.74863 l 1.7625,-0.58541 1.90925,1.74495 c 1.95429,1.78611 3.00524,2.19606 5.62976,2.19606 1.5271,0 3.03301,0.77099 3.03301,1.55283 0,0.24997 -0.33501,0.75691 -0.74447,1.12653 -0.40946,0.36962 -1.28251,1.73948 -1.94011,3.04414 -1.46769,2.91185 -2.51389,3.57899 -5.07895,3.23872 -2.08622,-0.27675 -2.63563,0.0651 -3.59999,2.24027 -0.81656,1.84176 -1.25485,7.03447 -0.68381,8.10147 0.23674,0.44235 1.39901,1.12228 2.89681,1.69461 2.69813,1.03102 3.20838,1.60215 2.31414,2.59027 -0.31457,0.3476 -0.57195,0.88305 -0.57195,1.1899 0,1.07714 2.7723,4.05414 5.16994,5.55168 1.32813,0.82954 3.22306,2.12319 4.21095,2.87479 0.98789,0.7516 2.71962,1.68425 3.84827,2.07257 2.37166,0.81597 5.49462,3.09305 6.52208,4.75552 0.53242,0.86148 0.70987,1.75936 0.70987,3.592 0,2.12931 -0.1478,2.69075 -1.14974,4.36745 -0.88815,1.48629 -1.56158,2.13208 -2.95994,2.83849 -0.9956,0.50295 -2.3203,1.49542 -2.94375,2.2055 -0.62345,0.71007 -1.26505,1.29104 -1.42576,1.29104 -0.16072,0 -0.6218,-0.46286 -1.02462,-1.02857 z"
       style="fill:#1d1d1d;stroke-width:0.35277775"
       sodipodi:nodetypes="cccscccssccscscccsssccccscccccccccccccccsssccccscccssccssccsccccsccsccscccscsccccccsccscccssccssccssccccsscsccccssccsssccsccccccscccccsccssscccscccsssssccccscsccscccscc" />
    <path
       style="fill:#db201c;stroke-width:1.33333325"
       d="m -82.517578,-328.91211 c -8.790728,-0.0147 -10.729869,0.41178 -13.544922,2.98242 -3.866702,3.53099 -18.29305,33.86311 -17.31641,36.40821 0.56612,1.4753 12.30945,7.63942 33.78516,17.73242 6.993521,3.28679 9.456932,9.52299 9.798828,24.8125 0.34461,15.40996 2.041632,18.27091 9.283203,15.65234 8.224921,-2.97418 10.965005,-2.11909 20.275391,6.31836 12.120907,10.98444 20.225687,14.01904 35.9765624,13.4707 20.9751306,-0.73024 24.5724566,-0.50902 29.7812496,1.83985 5.901959,2.66139 8.563156,6.68377 10.830078,16.36719 2.045065,8.73569 3.80099,10.23498 10.636719,9.08007 4.617147,-0.78005 5.759477,-0.45164 8.431641,2.43164 4.278312,4.61643 10.123646,19.40281 11.162109,28.23829 0.777336,6.61394 1.399743,7.75371 6.169922,11.26171 3.692863,2.71582 7.589937,4.17327 12.814453,4.79493 4.129059,0.4913 11.508901,2.62501 16.398434,4.74218 4.88962,2.11718 9.74381,3.84961 10.78711,3.84961 1.04327,0 5.59439,1.84833 10.11524,4.10742 13.5849,6.78845 17.01314,15.52306 20.89453,53.226567 2.54441,24.715842 4.11163,31.976313 11.15625,51.724609 2.95173,8.274709 6.58731,20.68237611 8.08008,27.5722659 3.43385,15.8490331 5.26256,21.1848971 13.57812,39.6152341 14.44551,32.016529 15.65391,52.824624 4.11524,70.898434 -2.2743,3.56244 -4.527,8.26115 -5.00586,10.44141 -0.55355,2.5203 -6.08523,9.45637 -15.1875,19.04492 -14.17032,14.92728 -19.67849,23.04639 -18.2168,26.85547 1.01514,2.64544 7.66315,5.28328 18.07813,7.17188 10.59106,1.92052 14.94139,4.10568 21.5039,10.80078 2.80796,2.86469 5.87854,5.20581 6.82422,5.20312 2.30479,-0.007 11.71875,-11.76664 11.71875,-14.63867 0,-3.67438 4.34272,-6.57129 12.04102,-8.03125 6.63189,-1.25771 7.76082,-1.0778 14.57421,2.32227 6.84923,3.4179 8.88641,3.73692 28.05274,4.38281 18.37689,0.61931 21.18241,1.02543 25.33203,3.66211 2.56668,1.6309 5.56798,2.97486 6.66797,2.98242 1.10003,0.01 5.27858,1.54428 9.28711,3.41016 4.00849,1.86587 8.50852,3.07323 10,2.68164 3.66478,-0.96227 8.08792,-8.17943 12.57422,-20.51758 5.12129,-14.08449 6.85321,-14.91138 31.26953,-14.91406 14.23411,-0.002 19.50428,0.49155 23,2.15039 6.22719,2.95498 6.16393,7.74616 -0.1836,13.89843 -2.92493,2.83491 -4.57089,5.5954 -4.33203,7.26172 0.41209,2.87569 3.24464,3.11126 15.2793,1.27539 5.36742,-0.81883 5.68686,-0.65922 9.12695,4.53907 1.96048,2.9625 3.18278,6.00387 2.7168,6.75781 -0.94768,1.53339 -32.8847,12.11748 -72.51758,24.0332 -104.62458,31.45561 -187.2655,46.9273 -250.88867,46.97266 -34.3152,0.0245 -53.409574,-3.09168 -71.52734375,-11.67578 C -14.675339,246.91564 -24.925781,232.85694 -24.925781,218.89453 c 0,-13.45069 9.5417,-35.23416 23.5781248,-53.82422 C 22.755449,133.14778 70.258008,92.078789 130.29297,51.257812 c 10.93697,-7.436636 19.47846,-13.519531 18.98047,-13.519531 -2.9452,0 -59.769568,38.463185 -89.552737,60.617188 -60.30965657,44.860951 -105.461899,90.971611 -121.195312,123.765621 -8.758999,18.25686 -10.406622,28.33429 -6.683594,40.8711 2.527442,8.51081 11.465075,18.12489 21.648437,23.28515 12.740398,6.45608 31.403381,10.73482 58.25,13.35547 11.616983,1.13401 57.587896,-0.7437 79.480469,-3.24609 83.137587,-9.50287 196.904107,-37.77294 307.621097,-76.44336 17.28121,-6.03587 23.25012,-7.3824 22.5664,-5.08789 -0.55657,1.86788 7.21618,7.58385 15.28321,11.23828 9.09664,4.12082 11.22038,8.4939 6.54492,13.4707 -3.4989,3.72427 -3.51882,4.97873 -0.16797,10.47461 1.46392,2.40106 2.66528,5.34158 2.66797,6.53516 0.0113,4.91701 3.25389,5.22379 11.69531,1.10547 7.2788,-3.5511 8.79686,-3.84753 13.90625,-2.70313 7.17706,1.60747 11.04334,5.96364 13.8457,15.60352 2.03154,6.98812 2.35935,7.37049 5.68946,6.60937 16.5188,-3.77552 18.51531,-3.87561 33.05273,-1.66992 15.70023,2.38212 19.05308,2.05922 25.14844,-2.42383 7.47035,-5.49433 10.65073,-6.51173 23.33203,-7.45703 8.1919,-0.61062 14.76443,-1.90459 18.60156,-3.66211 4.405,-2.01929 7.53259,-2.52691 12.14649,-1.98047 5.67836,0.6725 6.4326,0.41653 8.73437,-2.94921 8.81628,-12.89163 14.06883,-14.31806 22.00391,-5.97657 2.79042,2.93337 5.37078,5.33399 5.73437,5.33399 0.36348,0 2.92026,-1.5317 5.67969,-3.4043 5.95642,-4.04213 9.47116,-3.58915 16.68945,2.1543 2.70701,2.15391 5.23023,3.91601 5.60743,3.91601 0.37708,0 2.89608,-1.50065 5.59765,-3.33398 6.15927,-4.17986 8.60385,-4.18817 12.49805,-0.043 l 3.0918,3.29102 3.91015,-3.29102 c 5.48621,-4.61635 8.63897,-5.1164 26.53125,-4.2168 8.67194,0.43593 16.07631,0.29354 16.45313,-0.3164 0.377,-0.60994 -0.50619,-2.62471 -1.96289,-4.47657 -3.12643,-3.97462 -3.40682,-7.99045 -0.71485,-10.22461 1.50282,-1.24834 4.12175,-1.2529 11.76758,-0.0195 9.17276,1.47976 10.213,1.39504 15.45899,-1.28125 3.09354,-1.57821 13.97207,-10.87828 24.17578,-20.66601 25.42654,-24.39005 35.75526,-29.01523 49.33007,-22.08985 3.17243,1.61847 7.85919,2.66602 11.92188,2.66602 5.31636,0 9.10038,1.23751 18.38672,6.00976 12.17034,6.25425 24.22621,9.98293 32.30469,9.99805 7.24641,0.0114 14.53244,2.48432 16.13281,5.47461 1.96346,3.66871 -1.46275,8.78547 -7.59961,11.34961 -3.85697,1.61163 -4.5763,2.53659 -4.23047,5.44531 0.52494,4.4129 11.9491,10.9768 27.25195,15.66016 5.7744,1.76727 13.30339,4.21109 16.73047,5.42969 5.81961,2.07084 6.74391,2.06931 14,-0.0332 4.27295,-1.23809 10.28491,-3.39402 13.36133,-4.79101 3.07642,-1.39692 8.05193,-2.54102 11.05469,-2.54102 5.80565,0 14.28013,3.62264 17.44141,7.45508 5.1128,6.19835 17.6608,15.12737 24.1445,17.17969 4.9933,1.58056 8.594,3.89615 12.1387,7.80664 l 5.041,5.55859 6.0586,-6.97461 c 4.3181,-4.97102 7.5803,-7.38434 11.3535,-8.40039 4.2699,-1.14973 6.1633,-2.78461 9.7832,-8.44336 7.5983,-11.87811 8.9733,-23.19653 4.002,-32.91797 -3.9777,-7.77838 -17.0397,-17.33669 -28.9629,-21.19336 -2.7605,-0.89287 -7.8611,-3.83731 -11.334,-6.54296 -3.4729,-2.70562 -9.828,-7.00595 -14.123,-9.55664 -7.9424,-4.71674 -20.85747,-17.45005 -20.85747,-20.56446 0,-0.94201 1.25918,-3.31273 2.79687,-5.26758 3.7004,-4.70434 2.1253,-6.50342 -8.89843,-10.17187 -4.81504,-1.60237 -9.44264,-4.10067 -10.5664,-5.70508 -3.66082,-5.22648 -1.23638,-27.12211 3.86523,-34.9082 2.29512,-3.50279 2.68969,-3.6045 10.65039,-2.75195 7.23811,0.77514 8.71931,0.52653 11.92381,-1.99415 2.0128,-1.58324 5.3791,-6.26798 7.4785,-10.410152 2.0995,-4.142173 5.3764,-8.983904 7.2832,-10.761719 4.2334,-3.946998 4.3965,-7.132255 0.5489,-10.716797 -2.0488,-1.908774 -4.7298,-2.722782 -9,-2.726562 -9.6989,-0.01187 -15.04876,-2.170766 -21.39652,-8.638672 -6.51273,-6.635981 -7.45082,-6.875451 -15.7168,-3.996094 -6.14256,2.139667 -6.88798,1.953091 -18.96875,-4.759765 -3.11879,-1.732989 -7.23046,-2.594381 -12.39843,-2.595703 -10.81988,-0.0029 -14.86848,-2.437702 -17.57032,-10.572266 -2.09075,-6.29469 -2.54093,-6.723213 -9.11523,-8.667969 -3.80391,-1.125241 -11.11668,-4.802993 -16.25,-8.171875 -5.13335,-3.368882 -12.3901,-7.505913 -16.12695,-9.193359 -7.72831,-3.489902 -8.81842,-5.267861 -9.25586,-15.0976564 -0.26703,-6.0001512 0.10567,-7.2558262 2.53515,-8.546875 1.56654,-0.8324409 11.24896,-6.9292126 21.51563,-13.5488276 C 1003.5914,-84.82638 1073.8049,-147.83579 1095.623,-193.3125 c 12.0022,-25.01669 11.4679,-41.05948 -1.8085,-54.33594 -10.3437,-10.34366 -25.3756,-16.53647 -50.6856,-20.88281 -15.6707,-2.69099 -63.68048,-3.00556 -87.38867,-0.57227 -44.58115,4.57561 -98.13755,14.31383 -151.33398,27.51954 -33.74483,8.37694 -71.37055,18.80958 -74.55469,20.67187 -5.21404,3.04947 11.05186,0.91598 34.9336,-4.58398 99.77983,-22.97927 171.13708,-28.9663 214.15234,-17.96485 50.66,12.95664 58.295,46.56024 21.7617,95.77539 -9.25567,12.46859 -43.05349,46.44884 -60.95897,61.287112 -36.92337,30.598451 -103.06762,76.080672 -97.46875,67.021485 0.5952,-0.963062 -11.1234,-1.529728 -37.49804,-1.810547 -37.81179,-0.402746 -38.44685,-0.455971 -44.01367,-3.644531 -3.10659,-1.779364 -7.2667,-5.568408 -9.24415,-8.421875 -3.08931,-4.45784 -3.66434,-6.818665 -4.08398,-16.765625 -0.26861,-6.367106 -0.76846,-12.913578 -1.10937,-14.548828 l -0.61915,-2.97461 -6.58789,2.597657 c -10.00293,3.942765 -23.47056,6.874411 -35.95703,7.826171 l -11.24804,0.857422 -1.65235,9.832031 c -1.89887,11.298709 -6.06445,17.601009 -14.58789,22.072266 -5.02647,2.636825 -7.68363,2.780572 -59.26367,3.191406 -62.65005,0.498974 -65.47303,0.183818 -73.83398,-8.230468 -3.72953,-3.753336 -6.03951,-7.596791 -7.18165,-11.949219 -1.60006,-6.097512 -1.89143,-6.395792 -5.86523,-6 -4.38762,0.437064 -5.79419,2.04151 -7.05859,8.058594 -0.42093,2.003225 -2.64511,5.784756 -4.94336,8.402343 -7.63548,8.696315 -9.59499,9.191118 -38.44922,9.732422 -16.67414,0.312794 -28.49154,-0.06856 -32.94727,-1.0625 -5.89001,-1.313877 -8.83411,-1.152404 -19.33398,1.060547 -25.5007,5.374602 -51.24766,4.789537 -77.71875,-1.769531 -47.71125,-11.821984 -76.54585,-48.118905 -78.91406,-99.337892 -0.61595,-13.32174 -0.25557,-17.34623 2.75195,-30.66797 5.73196,-25.38962 18.09798,-45.78126 36.25781,-59.79492 5.08086,-3.92081 9.42198,-7.91674 9.64649,-8.88086 0.22458,-0.96412 -2.36877,-3.87409 -5.76172,-6.46484 -8.62186,-6.58311 -16.72795,-8.15569 -33.69727,-6.53711 -12.73572,1.21478 -14.08937,1.63831 -21.80664,6.82031 -10.67021,7.16489 -17.41199,7.45363 -30.72266,1.31836 -8.31416,-3.83225 -9.57912,-4.06833 -14.25976,-2.66602 -7.43475,2.22751 -10.78593,1.93642 -20.69922,-1.79492 -6.22273,-2.34221 -11.52354,-3.33606 -17.82617,-3.33984 -13.09625,-0.0109 -17.90945,-1.75768 -23.4375,-8.50391 -3.68965,-4.50278 -5.93026,-5.98558 -10.03906,-6.64258 -3.71963,-0.59482 -6.20935,-2.04277 -8.39063,-4.88086 -9.04063,-11.76283 -7.94654,-11.04659 -14.25586,-9.34765 -7.89226,2.12515 -12.0184,0.89016 -20.113279,-6.01953 -7.453342,-6.36193 -7.831228,-6.4624 -22.248047,-5.98633 -12.32451,0.40702 -19.542112,-2.71144 -29.609375,-12.78906 -4.147692,-4.15193 -9.941671,-9.06222 -12.875,-10.91211 -13.835339,-8.72527 -16.33139,-10.4528 -21.003907,-14.53711 -6.0583176,-5.29565 -9.2139815,-5.43916 -19.9882808,-0.9043 -11.8197392,4.97484 -20.5622122,4.1766 -36.3417972,-3.31836 -17.366211,-8.24855 -26.337239,-10.78188 -38.257812,-10.80078 z m -2.064453,1.38281 c 6.120817,-0.10368 13.7783,0.83062 19.65625,2.65039 4.766664,1.47572 13.708827,5.11895 19.871093,8.09571 15.919548,7.69013 22.39045,8.50114 34.128907,4.27343 14.9185509,-5.37305 15.9503046,-5.37665 21.830078,-0.0645 2.836006,2.56218 9.532677,7.21438 14.880859,10.33789 5.348145,3.12348 13.074716,8.9816 17.171875,13.01953 13.285947,13.09391 15.717216,14.19088 32.666016,14.73438 l 14.783203,0.47461 6,4.99023 c 8.74303,7.27302 11.6279,8.50218 17.92773,7.63867 3.03992,-0.41665 6.47317,-1.12096 7.62891,-1.56445 1.49601,-0.57407 3.126,0.94277 5.6582,5.26367 3.631,6.19586 9.08673,10.08399 14.15039,10.08399 1.63828,0 4.89487,2.32254 7.73243,5.51367 6.35716,7.1492 11.36801,9.15234 22.88476,9.15234 6.59486,0 12.25061,0.99567 18.94336,3.33399 10.73454,3.75042 13.84677,4.00768 21.33008,1.76562 4.8542,-1.45432 5.85109,-1.24885 13.8457,2.85156 12.46269,6.39213 20.56289,6.32621 30.13477,-0.24609 10.14251,-6.96408 13.02721,-7.74457 29.60547,-8.00195 16.14089,-0.25059 21.87545,1.49693 28.60547,8.70898 l 3.11523,3.33594 -7.11523,5.27344 c -9.51342,7.05199 -18.47198,16.84426 -25.51172,27.88672 -7.72842,12.12268 -10.72234,19.73328 -14.27539,36.27929 -9.1793,42.7465 6.07708,87.60106 38.04882,111.863284 12.17122,9.236296 22.32931,14.002025 38.625,18.11914 27.91764,7.053468 54.22111,7.757492 79.49024,2.128907 10.14671,-2.260158 13.54936,-2.51929 18.09375,-1.375 7.62289,1.91947 52.31112,1.810744 60.08398,-0.146485 8.44615,-2.126778 16.66684,-10.398803 18.81641,-18.935547 1.44469,-5.737285 1.93079,-6.303847 5.0918,-5.925781 2.90218,0.346961 3.80684,1.491568 5.33203,6.746094 2.44244,8.414551 9.16284,14.995707 17.99023,17.617187 9.65632,2.867604 109.37892,3.048016 118.79297,0.214844 12.41764,-3.737159 18.51388,-11.47425 20.62305,-26.175781 l 1.04883,-7.31836 11.98632,-0.923828 c 10.23372,-0.789732 29.57425,-5.143599 36.78907,-8.28125 1.82502,-0.793663 2.25345,0.592971 2.92968,9.470704 1.11753,14.671483 2.97439,19.847429 9.43946,26.3125 8.05462,8.054588 12.16808,8.755859 51.41601,8.755859 18.37527,0 33.41016,0.52284 33.41016,1.162109 0,2.301014 -57.35501,36.552135 -101.66797,60.714844 -14.48334,7.897398 -26.33203,14.948498 -26.33203,15.667969 0,0.719471 1.80862,3.93696 4.01953,7.15039 2.21091,3.21343 5.18946,8.570893 6.61914,11.90625 1.47587,3.442999 3.48562,6.064453 4.65039,6.064453 4.95031,0 108.70737,-56.952939 141.6836,-77.7714839 3.10208,-1.9584378 5.95274,-3.5605469 6.33398,-3.5605469 0.38124,0 0.69336,2.0185612 0.69336,4.4863282 0,6.2444596 4.16714,10.9266976 13.80078,15.5058596 4.50954,2.143521 12.09857,6.346786 16.86523,9.341797 4.76667,2.995011 10.16667,5.77142 12,6.167968 5.89584,1.275289 6.71403,1.728757 7.46094,4.134766 3.84269,12.377915 7.39951,15.010772 21.33985,15.802734 8.18471,0.464958 11.16391,1.232715 14.42382,3.714844 6.23774,4.749468 9.42844,5.284591 16.82422,2.828125 l 6.66016,-2.210937 7.2168,6.59375 c 7.38629,6.750652 11.35788,8.300781 21.27738,8.300781 5.7717,0 11.4629,2.914155 11.4628,5.869141 0,0.944768 -1.2649,2.860823 -2.8124,4.257812 -1.5476,1.396989 -4.8486,6.574861 -7.334,11.505859 -5.5472,11.005421 -9.5006,13.526291 -19.19535,12.240231 -7.88492,-1.04598 -9.96064,0.24569 -13.60547,8.4668 -3.08621,6.96098 -4.74419,26.58639 -2.58593,30.61914 0.89476,1.67188 5.28824,4.24311 10.94922,6.40625 10.19763,3.89677 12.12593,6.05444 8.74609,9.78906 -1.18893,1.31377 -2.16211,3.3383 -2.16211,4.49805 0,4.07108 10.47905,15.32243 19.54105,20.98242 5.0197,3.13527 12.1822,8.02454 15.916,10.86524 3.7337,2.84069 10.2772,6.36632 14.5429,7.83398 8.9638,3.08398 20.7671,11.68931 24.6504,17.97266 2.0123,3.25598 2.6836,6.64966 2.6836,13.57617 0,8.04779 -0.5588,10.17068 -4.3457,16.50781 -3.3568,5.61748 -5.9023,8.05667 -11.1875,10.72656 -3.7629,1.90092 -8.7686,5.65217 -11.125,8.33594 -2.3563,2.68373 -4.7812,4.88086 -5.3886,4.88086 -0.6075,0 -2.3506,-1.75055 -3.8731,-3.88867 -1.8783,-2.63785 -5.8146,-5.05097 -12.2441,-7.50781 -8.9477,-3.41911 -16.8776,-8.85936 -21.0078,-14.41016 -1.0119,-1.35984 -4.57938,-4.21049 -7.92778,-6.33398 -8.13785,-5.16087 -16.8809,-5.24683 -27.73828,-0.27539 -11.18744,5.1225 -19.52013,5.50003 -30.72851,1.39648 -5.0047,-1.83228 -12.62743,-4.4268 -16.93945,-5.76563 -9.38612,-2.91424 -19.49415,-9.0458 -19.49415,-11.82617 0,-1.10124 2.42406,-3.23856 5.38672,-4.75 7.33115,-3.74007 9.29627,-8.19664 5.72461,-12.98047 -3.04373,-4.07675 -6.48718,-5.33441 -15.11523,-5.52539 -8.87127,-0.19653 -22.88791,-4.61747 -34.03321,-10.73437 -7.93145,-4.35303 -11.20558,-5.40884 -16.90039,-5.44531 -4.16575,-0.0265 -9.25078,-1.10161 -12.39648,-2.6211 -7.54246,-3.64327 -16.63716,-3.40043 -24.64258,0.65625 -3.76044,1.90556 -14.68555,11.01712 -25.62305,21.3711 -10.48679,9.92734 -21.56143,19.25958 -24.61132,20.73828 -5.03324,2.44036 -6.36915,2.54516 -14.45703,1.13672 -11.05546,-1.92522 -15.33204,-0.50158 -15.33204,5.10546 0,2.05255 0.90582,5.02573 2.01368,6.60743 1.10785,1.58169 1.55785,3.15734 1,3.5 -0.55786,0.3428 -6.11431,0.0876 -12.34766,-0.56641 -14.15996,-1.48596 -21.78599,-0.44966 -26.61914,3.61719 -4.58377,3.85697 -5.59942,3.92363 -7.73633,0.50195 -2.29935,-3.68186 -8.13297,-3.40038 -13.63672,0.66016 -4.13748,3.05253 -4.73984,3.16067 -7.25976,1.30273 -11.1337,-8.20891 -14.48847,-8.70359 -22.13086,-3.26172 l -3.82617,2.72461 -2.25977,-3.44726 c -1.24271,-1.89668 -3.94143,-4.31836 -5.99609,-5.38086 -7.80499,-4.03612 -13.99369,-1.5005 -18.66016,7.64648 l -2.75586,5.40235 -6.58789,-0.87305 c -5.23759,-0.69479 -7.88009,-0.27763 -12.89258,2.03125 -4.37877,2.01702 -10.25492,3.1703 -19.23633,3.7793 -11.92539,0.80859 -13.48171,1.24905 -20,5.64453 -9.27163,6.25217 -11.50222,6.65612 -24.28515,4.39453 -13.66538,-2.41777 -20.93074,-2.41885 -30.00977,-0.002 -3.97432,1.05773 -7.64555,1.66449 -8.1582,1.34765 -0.51266,-0.31672 -1.30887,-2.94309 -1.77149,-5.83594 -1.44778,-9.05472 -10.98901,-17.46679 -19.81054,-17.46679 -1.6794,0 -5.8725,1.50065 -9.31641,3.33398 -7.91478,4.21338 -10.38281,4.25591 -10.38281,0.17969 0,-1.73446 -1.20132,-4.68037 -2.66797,-6.54492 -3.32942,-4.23266 -3.32942,-5.2897 0,-8.30274 5.99599,-5.4263 2.21337,-12.5804 -9.33203,-17.64648 -5.60519,-2.45957 -11.78214,-7.68121 -10.54688,-8.91602 0.30123,-0.30085 11.34688,-4.55687 24.54688,-9.45703 54.66606,-20.29345 145.86381,-57.68292 149.92578,-61.4668 1.67312,-1.5586 1.5599,-2.45594 -0.85938,-6.82031 -1.53218,-2.76416 -3.85857,-8.47669 -5.16992,-12.69336 -1.31138,-4.21667 -3.0239,-7.66274 -3.80664,-7.6582 -0.78278,0.004 -13.12383,5.14583 -27.42383,11.42578 -45.57377,20.014 -149.09019,60.31842 -161.08203,62.7168 -2.91923,0.58382 -4.18459,-0.0702 -6.6914,-3.46094 -4.13356,-5.5909 -7.80159,-6.83611 -13.38868,-4.53906 -10.19739,4.19251 -13.05589,1.29415 -6.20312,-6.29102 6.61406,-7.32098 6.26812,-12.7685 -1.03906,-16.33789 -4.24759,-2.07485 -8.09104,-2.45663 -23.64844,-2.35742 -23.35442,0.14891 -26.68554,1.30131 -29.95898,10.36719 -4.70567,13.03256 -9.81322,22.94679 -12.58399,24.42968 -2.32369,1.24362 -4.19435,0.90084 -10.2832,-1.88671 -4.0938,-1.8742 -8.31283,-3.40821 -9.37695,-3.40821 -1.06413,0 -4.56822,-1.5425 -7.78516,-3.42773 -5.50254,-3.22469 -7.01661,-3.44121 -25.57031,-3.66602 -18.70723,-0.22677 -20.07989,-0.42821 -26.67774,-3.90625 -8.07553,-4.25699 -9.50007,-4.37757 -18.88086,-1.59179 -6.18886,1.8379 -7.27078,2.71625 -9.44726,7.66796 -1.35171,3.07525 -4.2346,7.67463 -6.40821,10.22071 l -3.95312,4.6289 -7.52149,-6.875 c -6.72835,-6.14933 -8.60907,-7.104 -17.84375,-9.06054 -12.23894,-2.59314 -17.02819,-4.29173 -19.08789,-6.77344 -2.37573,-2.86261 3.36179,-11.34765 18.60743,-27.51953 7.60278,-8.06468 13.79022,-15.83608 14.29687,-17.95703 0.49126,-2.05667 2.91551,-7.05909 5.38672,-11.11524 5.84009,-9.5856 7.14062,-14.44274 7.14062,-26.667966 0,-14.909859 -2.19973,-22.177032 -17.23828,-56.925782 -2.29349,-5.299464 -5.66229,-16.382166 -7.48633,-24.6289058 -1.82399,-8.2467023 -5.37843,-20.4976552 -7.89843,-27.2246092 -6.57033,-17.539314 -9.60214,-30.84055 -11.36328,-49.84375 -2.00557,-21.64063 -4.85558,-37.836687 -7.84375,-44.591797 -3.38336,-7.64855 -10.45983,-13.29363 -21.04493,-16.78516 -5.01857,-1.65539 -12.39952,-4.4448 -16.40234,-6.19922 -4.002746,-1.75441 -10.714995,-3.54917 -14.916015,-3.98828 -9.365329,-0.97886 -17.130965,-6.5001 -17.15625,-12.19922 -0.04384,-9.86037 -8.245156,-29.26644 -13.949219,-33.0039 -2.369386,-1.55244 -4.747887,-1.89972 -8.570312,-1.25391 l -5.289063,0.89258 -2.886719,-9.76953 c -1.587666,-5.37305 -3.875518,-10.87988 -5.083984,-12.23828 -5.446564,-6.12246 -15.782504,-8.30143 -30.3515624,-6.39844 -17.1361776,2.23827 -30.9151336,-2.34638 -43.8710936,-14.59961 -7.420638,-7.01813 -10.720437,-7.88432 -18.853516,-4.94336 -2.416958,0.87398 -4.859297,1.12605 -5.427734,0.5586 -0.56843,-0.5675 -1.3834,-7.13333 -1.810547,-14.58985 -1.014508,-17.70935 -3.762075,-23.5261 -12.785156,-27.07031 -11.532813,-4.53003 -30.430439,-14.89402 -30.843749,-16.91406 -0.74026,-3.61803 14.73855,-33.96307 18.107421,-35.49805 1.850239,-0.84302 4.970087,-1.27959 8.642578,-1.3418 z M 657.74023,53.738281 c -14.76865,0 -31.95285,8.970848 -40.23046,21.001953 -18.89677,27.465486 -6.17995,65.017046 25.44335,75.134766 9.69703,3.1025 19.30475,3.12387 29.13477,0.0644 20.5429,-6.39363 34.98633,-25.7429 34.98633,-46.86914 0,-8.85664 -4.46893,-22.145325 -9.93945,-29.556638 -8.51146,-11.530999 -24.9369,-19.775391 -39.39454,-19.775391 z"
       id="path834"
       transform="scale(0.26458333)"
       inkscape:connector-curvature="0"
       sodipodi:nodetypes="ccccccscccccccccssccssccccsscscccccccscccccccsssssssssscssscccccccccsscccccssssccccccccccccscccccccccscscccccccccscccccccccccccccsccccscccsscssssccccscccccccscccccsccssscccscccccccccccccscccssssccscccccsscsccccsccccssccsccccccccccccssssscscsssscccccccscccscsccsccccscccscccscccscccscccccsscccccccccccccccccccccscsccccccccccccscsscccsccscccccccsccscccscscccccccccscccsccssscsscs" />
    <g
       id="g930"
       transform="translate(-45.386376,13.758338)"
       style="opacity:1">
      <path
         inkscape:connector-curvature="0"
         id="path920"
         d="m 148.8028,-68.410298 c -3.15392,0.009 -6.45383,0.20228 -8.05893,0.55139 -10.40625,2.26337 -16.83466,11.13126 -16.06672,22.16402 0.26128,3.753745 0.93317,6.138422 2.55436,9.064042 2.95228,5.32768 8.17164,8.729408 15.21665,9.918258 0.90593,0.15288 3.81597,0.29656 6.46678,0.31936 4.9997,0.04304 8.79565,-0.468789 11.49646,-1.550809 l 1.49913,-0.600481 v -12.661758 -12.661752 h -8.30233 -8.30286 l 0.10077,3.61579 0.10026,3.61581 2.81171,0.1049 c 1.70101,0.0632 2.91813,0.27217 3.08147,0.52916 0.14848,0.2336 0.27243,2.75471 0.27543,5.602759 0.006,5.970011 -0.12745,6.286956 -2.64841,6.286956 -5.40443,0 -10.69118,-3.009518 -12.5641,-7.152019 -0.72767,-1.60945 -0.83354,-2.382269 -0.83354,-6.077146 0,-3.81532 0.0898,-4.42523 0.91106,-6.17585 1.63025,-3.47513 4.36691,-5.46017 9.05164,-6.56652 2.35961,-0.55719 7.34031,-0.52114 10.24589,0.0744 l 1.15858,0.2372 -0.10025,-4.01113 -0.10025,-4.01164 -1.76423,-0.28732 c -1.41089,-0.22989 -3.77552,-0.33455 -6.22857,-0.32763 z"
         style="fill:#db201c;stroke-width:0.35277775" />
      <path
         inkscape:connector-curvature="0"
         id="path918"
         d="m 279.0331,-67.691478 -9.96632,0.14986 c -11.19409,0.16831 -12.34487,0.37765 -14.62908,2.66186 -1.80351,1.80351 -2.67219,4.00716 -2.67219,6.77839 0,4.42637 1.94277,7.05074 9.68313,13.08137 2.45527,1.91294 4.79667,3.901387 5.2033,4.418335 0.94341,1.1993 0.97456,3.297926 0.0656,4.421436 -0.6651,0.82211 -0.77194,0.834261 -8.29045,0.940511 l -7.61659,0.107487 v 4.037479 4.037997 l 8.02587,-0.01137 c 9.19261,-0.01247 12.49436,-0.344896 15.04198,-1.516186 4.05452,-1.86411 5.49165,-4.049895 5.49165,-8.350395 0,-4.795871 -1.56872,-7.045604 -8.44341,-12.107784 -2.62358,-1.93187 -5.20286,-3.91375 -5.73195,-4.40386 -2.00483,-1.85719 -2.03344,-4.7668 -0.0558,-5.66788 0.54913,-0.2502 3.29722,-0.39842 7.38404,-0.39842 h 6.5102 v -4.08916 z"
         style="fill:#db201c;stroke-width:0.35277775" />
      <path
         inkscape:connector-curvature="0"
         id="path916"
         d="m 209.88848,-67.683478 v 20.31349 20.312968 h 5.28805 5.28805 l 0.092,-16.139583 0.0915,-16.139575 4.3832,-0.0992 c 4.12246,-0.0936 4.4956,-0.0445 6.27972,0.82837 2.48624,1.2164 3.6214,2.9043 3.88141,5.77174 0.24151,2.66334 -0.51714,4.85371 -2.18953,6.32209 -1.6815,1.47638 -3.36416,1.93257 -6.40581,1.73737 l -2.59725,-0.1664 v 3.78891 c 0,4.350091 -0.33341,3.989065 4.07262,4.410584 3.27215,0.313041 7.20047,-0.316514 9.94151,-1.593184 7.11311,-3.31302 10.1178,-12.87823 6.48591,-20.64732 -1.20891,-2.586 -3.86717,-5.59889 -5.82032,-6.59752 -3.26397,-1.66886 -4.34941,-1.79436 -16.88476,-1.95234 z"
         style="fill:#db201c;stroke-width:0.35277775" />
      <path
         inkscape:connector-curvature="0"
         id="path914"
         d="m 180.01795,-67.626078 -1.78697,3.43959 c -4.39825,8.46466 -8.57581,20.521467 -11.34814,32.752514 l -0.99219,4.377511 h 5.21725 5.21674 l 0.39584,-2.028817 c 1.4077,-7.21232 4.27359,-16.863188 6.78253,-22.842018 1.63833,-3.90416 2.21864,-3.94615 3.89124,-0.28163 0.69063,1.5131 1.76804,4.29815 2.39417,6.18929 1.46591,4.427472 1.41751,4.498941 -3.03651,4.498941 h -3.29437 l -0.3452,1.322917 c -0.85555,3.28048 -1.44591,5.674918 -1.44591,5.863208 0,0.11271 2.57952,0.248491 5.73247,0.301791 l 5.73247,0.09715 0.66972,3.439584 0.66921,3.439583 h 5.23069 5.23121 l -0.20258,-1.1467 c -2.39778,-13.57373 -7.21034,-27.606844 -12.76356,-37.217884 l -1.27434,-2.20503 h -5.33662 z"
         style="fill:#db201c;stroke-width:0.35277775" />
    </g>
  </g>
</svg>
